<svg xmlns="http://www.w3.org/2000/svg" viewBox="0 0 100 100" width="100" height="100">
  <defs>
    <linearGradient id="heartGradient" x1="0%" y1="0%" x2="100%" y2="100%">
      <stop offset="0%" style="stop-color:#660099;stop-opacity:1" />
      <stop offset="100%" style="stop-color:#ff6b6b;stop-opacity:1" />
    </linearGradient>
  </defs>
  <!-- Kalp şekli -->
  <path d="M50,85 C50,85 15,55 15,35 C15,20 25,15 35,15 C42,15 47,18 50,25 C53,18 58,15 65,15 C75,15 85,20 85,35 C85,55 50,85 50,85 Z" 
        fill="url(#heartGradient)" 
        stroke="#ffffff" 
        stroke-width="2"/>
  <!-- İç dekoratif kalp -->
  <path d="M50,70 C50,70 25,50 25,35 C25,25 30,22 35,22 C40,22 43,24 50,32 C57,24 60,22 65,22 C70,22 75,25 75,35 C75,50 50,70 50,70 Z" 
        fill="rgba(255,255,255,0.2)"/>
</svg>

